<svg xmlns="http://www.w3.org/2000/svg" viewBox="0 0 512 512" width="512" height="512">
  <path d="M65.5,2.6 L84.7,20.1 Q105.3,36.5 126.5,52.3 Q141.5,73.5 164.0,88.2 Q175.1,112.8 188.2,135.7 Q201.0,158.8 220.3,176.3 L234.7,197.9 L249.7,219.2 Q264.4,240.6 290.6,252.1 Q311.7,268.1 320.2,294.9 Q338.4,313.3 355.2,333.0 L371.4,353.1 Q390.9,370.5 406.7,390.9 L420.8,413.0 L437.8,432.5" fill="none" stroke="#7a4f10" stroke-width="6.03" stroke-linecap="round" stroke-linejoin="round" opacity="0.60"/>
  <path d="M164.0,88.2 L158.3,95.6 L153.8,103.8 Q146.3,109.9 139.5,116.4 Q136.2,125.6 130.3,132.8 L124.6,140.1 L119.7,148.1 L113.4,155.1" fill="none" stroke="#7a4f10" stroke-width="3.69" stroke-linecap="round" stroke-linejoin="round" opacity="0.50"/>
  <path d="M130.3,132.8 Q133.2,134.4 136.3,135.9 Q139.5,136.8 142.7,137.7 Q145.8,138.9 149.5,138.6 L152.5,140.1 L155.6,141.2 Q158.6,142.7 161.8,143.7 L164.3,146.4" fill="none" stroke="#7a4f10" stroke-width="2.67" stroke-linecap="round" stroke-linejoin="round" opacity="0.50"/>
  <path d="M155.6,141.2 L156.8,136.5 L157.2,131.7 L159.3,127.1 L158.4,122.2 Q158.0,117.4 157.2,112.6 Q157.7,107.8 158.4,103.0 L158.8,98.3" fill="none" stroke="#7a4f10" stroke-width="2.65" stroke-linecap="round" stroke-linejoin="round" opacity="0.50"/>
  <path d="M311.7,268.1 L316.3,264.1 Q320.3,259.5 322.8,253.8 Q329.9,251.9 332.8,246.5 L334.3,239.9 Q338.4,235.5 341.5,230.2 Q345.3,225.6 350.3,221.9" fill="none" stroke="#7a4f10" stroke-width="4.22" stroke-linecap="round" stroke-linejoin="round" opacity="0.50"/>
  <path d="M329.9,251.9 L328.5,248.7 Q326.9,245.6 326.3,242.1 L323.6,239.6 Q323.8,235.6 322.0,232.6 L319.0,230.3 L317.3,227.3 L315.3,224.5" fill="none" stroke="#7a4f10" stroke-width="2.59" stroke-linecap="round" stroke-linejoin="round" opacity="0.50"/>
  <path d="M326.9,245.6 L324.0,247.3 L321.3,249.6 Q317.9,250.6 315.3,252.8 Q311.3,252.7 308.4,254.6 L305.6,256.6 L301.7,256.8 Q299.7,260.1 297.0,262.3 Q294.1,264.1 291.1,265.8" fill="none" stroke="#7a4f10" stroke-width="3.11" stroke-linecap="round" stroke-linejoin="round" opacity="0.50"/>
  <path d="M334.3,239.9 L333.0,236.2 Q333.0,231.3 330.6,228.7 Q326.1,228.1 321.9,227.2 Q320.3,223.8 318.5,220.7 L314.7,219.4" fill="none" stroke="#7a4f10" stroke-width="2.73" stroke-linecap="round" stroke-linejoin="round" opacity="0.50"/>
  <path d="M478.9,91.4 Q452.7,95.3 427.9,102.3 L398.7,99.6 Q368.3,94.5 348.6,112.5 Q321.8,115.1 297.3,122.7 L283.6,153.6 L267.0,178.2 Q248.8,199.3 225.4,209.1 Q201.6,218.4 179.2,230.4" fill="none" stroke="#7a4f10" stroke-width="5.49" stroke-linecap="round" stroke-linejoin="round" opacity="0.60"/>
  <path d="M321.8,115.1 L325.8,125.0 Q331.8,134.0 335.7,143.9 Q340.4,153.5 346.6,162.3 Q348.0,173.5 354.8,182.0 Q359.1,191.8 363.6,201.4 L367.5,211.4" fill="none" stroke="#7a4f10" stroke-width="4.08" stroke-linecap="round" stroke-linejoin="round" opacity="0.50"/>
  <path d="M398.7,99.6 Q401.8,88.5 406.2,77.7 Q409.9,66.8 416.4,56.5 L415.5,44.5 Q418.2,33.4 417.0,21.3 L419.1,10.0" fill="none" stroke="#7a4f10" stroke-width="4.42" stroke-linecap="round" stroke-linejoin="round" opacity="0.50"/>
  <path d="M283.6,153.6 L273.0,149.4 L261.8,148.5 Q250.9,145.7 239.6,145.2 L228.1,145.7 Q216.9,144.8 205.5,145.0 Q194.9,140.7 184.0,137.7 L173.4,133.3" fill="none" stroke="#7a4f10" stroke-width="4.54" stroke-linecap="round" stroke-linejoin="round" opacity="0.50"/>
  <path d="M194.9,140.7 L195.7,136.7 Q197.6,132.9 199.8,129.2 L202.2,125.6 Q204.0,121.8 204.5,117.6 L205.2,113.5 Q204.6,108.9 205.0,104.7 L206.5,100.8 L208.2,97.0" fill="none" stroke="#7a4f10" stroke-width="2.66" stroke-linecap="round" stroke-linejoin="round" opacity="0.50"/>
  <path d="M197.6,132.9 L196.2,129.1 Q193.1,126.7 191.1,123.3 L188.7,120.3 Q185.0,118.4 182.7,115.3 L180.0,112.5" fill="none" stroke="#7a4f10" stroke-width="2.91" stroke-linecap="round" stroke-linejoin="round" opacity="0.50"/>
  <path d="M194.9,140.7 L194.4,144.7 Q194.6,148.6 195.0,152.5 L194.0,156.4 Q191.3,160.3 191.6,164.2 Q193.0,168.2 192.4,172.1 L191.3,176.0 Q193.0,179.9 193.6,183.8 L194.5,187.8" fill="none" stroke="#7a4f10" stroke-width="2.52" stroke-linecap="round" stroke-linejoin="round" opacity="0.50"/>
  <path d="M179.2,230.4 L160.7,245.6 Q147.9,265.2 127.1,278.7 Q108.2,293.6 96.8,314.3 Q85.7,335.2 72.5,354.5 Q63.0,376.6 51.4,397.2 Q37.4,415.8 23.4,434.5 L8.9,452.8" fill="none" stroke="#7a4f10" stroke-width="5.64" stroke-linecap="round" stroke-linejoin="round" opacity="0.60"/>
  <path d="M108.2,293.6 Q114.7,298.1 121.9,301.3 L127.9,306.8 Q136.9,306.4 145.0,307.7 L150.8,313.6 L158.5,315.7 Q166.4,317.5 172.4,322.8 Q178.9,327.3 185.5,331.5 L191.6,336.9" fill="none" stroke="#7a4f10" stroke-width="4.16" stroke-linecap="round" stroke-linejoin="round" opacity="0.50"/>
  <path d="M178.9,327.3 L176.5,329.5 Q175.3,332.6 172.6,334.6 Q172.5,338.5 173.6,343.3 L169.7,344.5 L169.2,348.1 L165.1,349.1 Q162.1,350.9 159.7,353.1 L158.0,356.0" fill="none" stroke="#7a4f10" stroke-width="2.62" stroke-linecap="round" stroke-linejoin="round" opacity="0.50"/>
  <path d="M169.7,344.5 Q168.0,341.3 166.5,337.9 Q163.7,335.3 162.4,331.8 Q160.7,328.5 159.9,324.7 Q157.7,321.8 154.8,319.2 Q152.9,316.1 152.3,312.1 Q150.0,309.2 147.4,306.5" fill="none" stroke="#7a4f10" stroke-width="2.96" stroke-linecap="round" stroke-linejoin="round" opacity="0.50"/>
  <path d="M63.0,376.6 L71.5,379.8 Q79.9,383.5 88.2,387.2 Q96.4,391.1 105.5,393.2 Q114.8,394.6 121.8,401.3 Q130.1,405.1 137.8,410.3" fill="none" stroke="#7a4f10" stroke-width="4.44" stroke-linecap="round" stroke-linejoin="round" opacity="0.50"/>
  <path d="M121.8,401.3 L124.1,397.9 Q125.3,393.8 128.4,391.0 L128.6,386.1 L132.8,384.0 L136.5,381.6 Q136.4,376.6 140.2,374.2 Q142.8,371.0 144.9,367.5 L147.2,364.1" fill="none" stroke="#7a4f10" stroke-width="3.10" stroke-linecap="round" stroke-linejoin="round" opacity="0.50"/>
  <path d="M136.4,376.6 L140.5,379.7 Q144.2,384.3 149.2,384.5 L154.6,383.2 L159.9,382.4 L163.8,386.4 Q169.0,385.8 173.7,386.9 Q178.3,388.7 182.7,390.6" fill="none" stroke="#7a4f10" stroke-width="2.93" stroke-linecap="round" stroke-linejoin="round" opacity="0.50"/>
  <path d="M96.8,314.3 Q88.0,314.7 78.6,319.2 L69.0,325.5 L59.9,327.2 Q51.0,328.0 43.0,321.3 Q34.7,317.4 26.5,312.3 Q18.4,306.8 10.0,303.4" fill="none" stroke="#7a4f10" stroke-width="3.67" stroke-linecap="round" stroke-linejoin="round" opacity="0.50"/>
  <path d="M85.7,335.2 Q77.4,331.1 69.7,325.7 L63.1,317.8 L53.4,316.8 L44.8,313.2 L35.1,312.2 L26.7,308.1 L18.2,304.5 L10.0,300.1" fill="none" stroke="#7a4f10" stroke-width="4.23" stroke-linecap="round" stroke-linejoin="round" opacity="0.50"/>
  <path d="M173.9,15.7 Q178.5,41.5 185.9,66.8 Q193.7,92.0 199.0,117.8 L202.7,143.9 Q203.0,170.6 199.9,198.1 L205.1,223.9 Q217.1,248.2 209.9,276.5 Q203.1,304.8 217.8,328.6 L225.8,353.7 L240.4,377.6 Q254.4,401.5 259.7,427.2 Q263.4,453.3 267.9,479.2 L274.8,504.6" fill="none" stroke="#7a4f10" stroke-width="5.17" stroke-linecap="round" stroke-linejoin="round" opacity="0.60"/>
  <path d="M203.1,304.8 Q196.4,302.7 189.7,300.9 L182.8,300.0 Q176.0,298.8 169.3,296.3 L162.3,296.3 L155.6,294.1 Q148.3,296.0 141.4,294.8 Q134.5,294.1 127.7,292.8" fill="none" stroke="#7a4f10" stroke-width="4.39" stroke-linecap="round" stroke-linejoin="round" opacity="0.50"/>
  <path d="M169.3,296.3 Q167.3,299.3 164.7,302.0 Q163.8,305.5 163.2,309.2 L162.6,312.9 Q160.0,315.6 159.0,319.1 L158.8,323.0 L156.3,325.8 Q154.2,328.8 152.4,331.8" fill="none" stroke="#7a4f10" stroke-width="2.82" stroke-linecap="round" stroke-linejoin="round" opacity="0.50"/>
  <path d="M193.7,92.0 L183.0,99.2 L173.2,107.8 L161.5,113.2 Q147.7,115.0 137.6,123.1 Q127.6,131.6 116.2,137.4" fill="none" stroke="#7a4f10" stroke-width="3.83" stroke-linecap="round" stroke-linejoin="round" opacity="0.50"/>
  <path d="M137.6,123.1 L134.1,121.9 Q130.9,120.4 128.8,117.5 Q126.6,114.8 124.3,112.3 Q120.3,111.6 118.4,108.5 L116.6,105.4 L113.8,103.3" fill="none" stroke="#7a4f10" stroke-width="2.66" stroke-linecap="round" stroke-linejoin="round" opacity="0.50"/>
  <path d="M120.3,111.6 L123.6,109.8 Q125.6,106.4 129.3,105.0 L130.8,101.0 Q133.7,98.6 135.1,94.5 Q139.5,93.9 143.2,92.6" fill="none" stroke="#7a4f10" stroke-width="2.74" stroke-linecap="round" stroke-linejoin="round" opacity="0.50"/>
  <path d="M147.7,115.0 Q144.7,111.8 141.8,108.6 Q140.0,104.7 137.2,101.3 Q135.0,97.7 133.5,93.5 Q131.4,89.8 128.0,86.9 Q125.5,83.4 124.6,78.9 L122.2,75.3" fill="none" stroke="#7a4f10" stroke-width="2.87" stroke-linecap="round" stroke-linejoin="round" opacity="0.50"/>
  <path d="M131.4,89.8 Q127.9,92.9 124.7,96.2 Q122.3,100.3 118.5,103.0 Q114.7,105.7 112.0,109.5 Q108.8,112.8 105.3,115.8 L102.1,119.1 L98.5,122.0" fill="none" stroke="#7a4f10" stroke-width="2.74" stroke-linecap="round" stroke-linejoin="round" opacity="0.50"/>
  <path d="M10.9,240.4 Q36.7,245.7 62.0,252.9 L86.9,261.3 L110.8,273.6 Q135.9,281.6 162.1,285.2 Q187.7,291.4 212.9,298.7 Q238.2,305.9 266.8,300.6 Q293.6,302.2 322.0,297.8 Q345.2,312.6 370.1,321.4 L394.9,330.3 Q417.8,346.2 442.8,354.6 L467.9,362.4 L493.2,369.4" fill="none" stroke="#7a4f10" stroke-width="5.61" stroke-linecap="round" stroke-linejoin="round" opacity="0.60"/>
  <path d="M86.9,261.3 L92.4,250.9 Q98.8,241.0 105.9,231.6 Q108.6,219.4 115.1,209.6 L123.6,201.0 L132.2,192.6 L139.1,183.0 L144.1,172.3 L150.6,162.5 L156.4,152.2" fill="none" stroke="#7a4f10" stroke-width="4.29" stroke-linecap="round" stroke-linejoin="round" opacity="0.50"/>
  <path d="M132.2,192.6 L129.2,191.3 L126.8,188.8 Q124.2,186.9 121.5,185.0 Q119.2,182.5 116.3,180.9 L113.1,179.8 L110.5,177.7" fill="none" stroke="#7a4f10" stroke-width="3.18" stroke-linecap="round" stroke-linejoin="round" opacity="0.50"/>
  <path d="M144.1,172.3 Q141.6,170.5 139.3,168.3 L136.4,167.1 Q132.7,167.2 131.1,163.9 L128.4,162.5 L127.1,158.7 L123.7,158.3 L120.1,158.3 L117.7,156.4" fill="none" stroke="#7a4f10" stroke-width="2.79" stroke-linecap="round" stroke-linejoin="round" opacity="0.50"/>
  <path d="M132.7,167.2 Q131.1,169.6 130.1,172.3 Q128.7,174.8 126.8,177.1 Q126.7,180.2 126.0,183.0 Q124.3,185.4 122.8,187.8" fill="none" stroke="#7a4f10" stroke-width="2.79" stroke-linecap="round" stroke-linejoin="round" opacity="0.50"/>
  <path d="M417.8,346.2 L419.2,335.1 Q419.6,323.8 420.2,312.5 Q423.1,301.6 429.8,291.3 L432.0,280.3 Q429.5,268.6 429.3,257.2 Q430.7,246.1 433.9,235.2 L437.2,224.4" fill="none" stroke="#7a4f10" stroke-width="3.94" stroke-linecap="round" stroke-linejoin="round" opacity="0.50"/>
  <path d="M430.7,246.1 L428.7,245.0 Q426.7,244.1 424.7,243.2 L422.9,241.8 Q421.4,239.8 419.6,238.4 Q417.9,236.9 415.2,237.2 Q413.1,236.5 410.7,236.2" fill="none" stroke="#7a4f10" stroke-width="2.80" stroke-linecap="round" stroke-linejoin="round" opacity="0.50"/>
  <path d="M423.1,301.6 Q424.6,302.7 426.0,304.0 Q427.6,305.1 429.1,306.3 Q431.4,306.3 433.0,307.3 Q434.1,309.0 436.7,308.4 Q437.8,310.4 439.5,311.2 Q440.8,312.7 442.3,313.9" fill="none" stroke="#7a4f10" stroke-width="2.60" stroke-linecap="round" stroke-linejoin="round" opacity="0.50"/>
  <path d="M434.1,309.0 Q432.5,310.4 431.9,312.3 Q430.8,314.0 430.5,316.1 Q430.9,318.6 429.3,320.0 L427.4,321.2 L425.7,322.6 Q424.8,324.4 424.5,326.5 Q424.0,328.5 422.7,330.0" fill="none" stroke="#7a4f10" stroke-width="2.75" stroke-linecap="round" stroke-linejoin="round" opacity="0.50"/>
  <path d="M16.3,43.3 L40.2,54.5 Q64.9,62.8 90.4,67.8 Q115.7,73.7 142.2,74.9 Q169.9,71.7 193.9,82.5 L216.9,97.1 L241.7,104.5 Q268.4,105.2 291.7,118.4 L317.1,124.1 Q344.2,122.9 369.4,129.2 L393.7,139.0 Q420.3,139.7 443.5,153.7 L468.2,161.9 L493.2,168.5" fill="none" stroke="#7a4f10" stroke-width="5.93" stroke-linecap="round" stroke-linejoin="round" opacity="0.60"/>
  <path d="M216.9,97.1 L214.3,101.7 Q212.8,106.6 212.8,112.1 L211.0,117.0 L213.1,123.2 L210.6,127.8 L208.2,132.4 L203.6,136.3 Q203.5,141.8 203.9,147.4 Q200.5,151.7 196.4,155.8" fill="none" stroke="#7a4f10" stroke-width="4.60" stroke-linecap="round" stroke-linejoin="round" opacity="0.50"/>
  <path d="M203.5,141.8 L206.5,140.2 L209.8,139.4 Q213.1,138.4 216.1,136.9 L219.6,136.6 Q222.5,134.7 225.8,133.8 L229.0,132.8 Q232.1,131.5 235.2,130.0" fill="none" stroke="#7a4f10" stroke-width="3.16" stroke-linecap="round" stroke-linejoin="round" opacity="0.50"/>
  <path d="M213.1,123.2 Q210.5,121.9 207.9,119.0 Q205.2,118.7 202.5,119.0 Q199.7,120.6 197.0,121.7 L194.3,122.3 L191.6,122.6" fill="none" stroke="#7a4f10" stroke-width="3.11" stroke-linecap="round" stroke-linejoin="round" opacity="0.50"/>
  <path d="M443.5,153.7 L442.0,164.1 Q440.0,174.4 437.0,184.7 Q430.8,194.8 435.2,205.5 Q438.7,216.2 439.0,226.7 L436.2,236.9 Q435.8,247.4 437.6,257.9 L436.5,268.3" fill="none" stroke="#7a4f10" stroke-width="3.95" stroke-linecap="round" stroke-linejoin="round" opacity="0.50"/>
  <path d="M268.4,105.2 Q264.0,110.8 260.6,117.0 L257.1,123.1 Q252.9,128.8 248.8,134.5 Q244.4,140.1 242.3,147.0 Q241.0,154.3 234.9,158.9 Q230.7,164.6 230.1,172.4" fill="none" stroke="#7a4f10" stroke-width="4.34" stroke-linecap="round" stroke-linejoin="round" opacity="0.50"/>
  <path d="M248.8,134.5 Q251.4,135.6 254.0,137.0 L256.8,137.6 L259.5,138.8 Q262.5,138.7 264.8,140.8 Q268.0,140.4 270.5,142.0 Q272.8,144.3 275.8,144.4 L279.0,143.7 L281.8,144.3" fill="none" stroke="#7a4f10" stroke-width="3.15" stroke-linecap="round" stroke-linejoin="round" opacity="0.50"/>
  <path d="M272.8,144.3 L273.4,146.6 Q274.7,149.0 273.2,151.1 L271.9,153.2 Q269.9,155.2 269.4,157.4 L271.0,159.9 L271.4,162.2 Q271.6,164.5 271.4,166.7 L269.9,168.8" fill="none" stroke="#7a4f10" stroke-width="2.58" stroke-linecap="round" stroke-linejoin="round" opacity="0.50"/>
  <path d="M133.8,495.9 Q138.5,473.9 137.6,451.0 Q140.4,428.7 142.6,406.3 Q138.4,382.8 148.9,361.8 Q154.0,339.9 161.0,318.4 Q163.6,296.0 171.8,274.7 Q173.5,252.2 179.2,230.4" fill="none" stroke="#7a4f10" stroke-width="5.18" stroke-linecap="round" stroke-linejoin="round" opacity="0.60"/>
  <path d="M171.8,274.7 L178.6,276.5 L184.2,280.2 L189.4,284.7 Q197.8,283.8 206.6,282.1 L214.8,281.5 Q216.6,291.8 221.7,296.6 L224.9,304.5 Q230.6,308.0 236.0,312.3" fill="none" stroke="#7a4f10" stroke-width="3.68" stroke-linecap="round" stroke-linejoin="round" opacity="0.50"/>
  <path d="M171.8,274.7 L161.8,271.4 L152.9,265.0 L143.3,260.6 Q132.6,259.1 122.4,256.2 Q111.2,256.1 102.3,249.8 L92.4,246.1" fill="none" stroke="#7a4f10" stroke-width="4.19" stroke-linecap="round" stroke-linejoin="round" opacity="0.50"/>
  <path d="M143.3,260.6 Q143.4,264.2 142.4,267.6 L140.7,270.8 Q141.0,274.5 138.5,277.6 Q138.6,281.2 137.9,284.7 L137.6,288.2" fill="none" stroke="#7a4f10" stroke-width="2.74" stroke-linecap="round" stroke-linejoin="round" opacity="0.50"/>
  <path d="M161.0,318.4 L170.8,318.4 L180.6,320.2 L190.4,320.9 Q200.2,321.6 210.2,319.5 L219.9,321.6 L229.7,323.7 Q239.4,324.9 249.4,323.6" fill="none" stroke="#7a4f10" stroke-width="4.08" stroke-linecap="round" stroke-linejoin="round" opacity="0.50"/>
  <path d="M179.2,230.4 Q200.2,216.0 225.0,206.8 Q243.1,188.4 261.1,169.9 L282.1,155.5 Q301.7,139.3 321.6,123.3 Q342.4,108.6 360.9,90.9 Q382.9,77.8 406.2,66.5 Q425.9,50.4 446.4,35.2" fill="none" stroke="#7a4f10" stroke-width="5.46" stroke-linecap="round" stroke-linejoin="round" opacity="0.60"/>
  <path d="M360.9,90.9 Q366.5,99.1 370.8,107.9 Q374.6,116.9 381.0,124.6 Q381.8,135.2 385.4,144.3 Q390.8,152.6 396.7,160.6 Q402.7,168.6 405.9,177.9 Q408.7,187.4 412.7,196.4" fill="none" stroke="#7a4f10" stroke-width="4.58" stroke-linecap="round" stroke-linejoin="round" opacity="0.50"/>
  <path d="M381.0,124.6 Q385.8,124.6 390.6,124.1 Q395.4,124.9 400.3,125.5 Q405.0,124.8 409.8,124.4 Q414.6,123.6 419.4,123.0" fill="none" stroke="#7a4f10" stroke-width="3.05" stroke-linecap="round" stroke-linejoin="round" opacity="0.50"/>
  <path d="M374.6,116.9 L378.0,114.3 Q381.2,111.4 386.1,110.2 Q391.5,109.7 393.6,105.7 L395.1,101.0 Q396.6,96.3 401.1,94.9 L405.5,93.2 L408.7,90.4 Q411.5,87.1 411.7,81.2" fill="none" stroke="#7a4f10" stroke-width="3.04" stroke-linecap="round" stroke-linejoin="round" opacity="0.50"/>
  <path d="M395.1,101.0 Q398.1,102.4 401.0,103.8 Q404.5,103.5 407.5,105.0 Q410.7,105.5 414.5,104.3 Q417.7,105.0 421.0,105.4 Q423.7,107.5 426.0,110.9" fill="none" stroke="#7a4f10" stroke-width="2.77" stroke-linecap="round" stroke-linejoin="round" opacity="0.50"/>
  <path d="M301.7,139.3 Q305.5,144.0 310.6,147.7 L315.7,151.5 L318.3,157.0 L323.2,160.9 Q329.5,163.9 329.0,171.5 Q335.7,174.2 334.2,182.5 L336.1,188.4 L338.7,193.9" fill="none" stroke="#7a4f10" stroke-width="3.80" stroke-linecap="round" stroke-linejoin="round" opacity="0.50"/>
  <path d="M329.0,171.5 Q326.5,174.4 324.1,177.5 Q321.7,180.5 319.5,183.8 Q314.9,184.5 310.8,185.6 Q309.4,189.7 305.8,191.5 Q303.7,194.9 301.2,197.8 L297.7,199.7" fill="none" stroke="#7a4f10" stroke-width="3.15" stroke-linecap="round" stroke-linejoin="round" opacity="0.50"/>
  <path d="M335.7,174.2 L338.6,173.4 Q341.6,173.2 344.6,172.9 Q347.7,173.4 350.9,174.5 L353.4,171.7 Q356.5,172.3 359.3,171.0 L362.0,169.6 L364.9,168.7 L367.6,167.5" fill="none" stroke="#7a4f10" stroke-width="2.74" stroke-linecap="round" stroke-linejoin="round" opacity="0.50"/>
  <path d="M350.9,174.5 L352.0,176.3 L352.0,178.3 Q353.1,180.1 353.8,182.0 Q356.3,183.5 353.7,185.9 L354.5,187.8 Q354.0,189.9 355.3,191.6 Q355.4,193.6 355.1,195.6 L354.8,197.6" fill="none" stroke="#7a4f10" stroke-width="2.82" stroke-linecap="round" stroke-linejoin="round" opacity="0.50"/>
  <path d="M65.5,2.6 L84.7,20.1 Q105.3,36.5 126.5,52.3 Q141.5,73.5 164.0,88.2 Q175.1,112.8 188.2,135.7 Q201.0,158.8 220.3,176.3 L234.7,197.9 L249.7,219.2 Q264.4,240.6 290.6,252.1 Q311.7,268.1 320.2,294.9 Q338.4,313.3 355.2,333.0 L371.4,353.1 Q390.9,370.5 406.7,390.9 L420.8,413.0 L437.8,432.5" fill="none" stroke="#c9962b" stroke-width="5.13" stroke-linecap="round" stroke-linejoin="round" opacity="0.95"/>
  <path d="M164.0,88.2 L158.3,95.6 L153.8,103.8 Q146.3,109.9 139.5,116.4 Q136.2,125.6 130.3,132.8 L124.6,140.1 L119.7,148.1 L113.4,155.1" fill="none" stroke="#c9962b" stroke-width="2.79" stroke-linecap="round" stroke-linejoin="round" opacity="0.95"/>
  <path d="M130.3,132.8 Q133.2,134.4 136.3,135.9 Q139.5,136.8 142.7,137.7 Q145.8,138.9 149.5,138.6 L152.5,140.1 L155.6,141.2 Q158.6,142.7 161.8,143.7 L164.3,146.4" fill="none" stroke="#c9962b" stroke-width="1.77" stroke-linecap="round" stroke-linejoin="round" opacity="0.95"/>
  <path d="M155.6,141.2 L156.8,136.5 L157.2,131.7 L159.3,127.1 L158.4,122.2 Q158.0,117.4 157.2,112.6 Q157.7,107.8 158.4,103.0 L158.8,98.3" fill="none" stroke="#c9962b" stroke-width="1.75" stroke-linecap="round" stroke-linejoin="round" opacity="0.95"/>
  <path d="M311.7,268.1 L316.3,264.1 Q320.3,259.5 322.8,253.8 Q329.9,251.9 332.8,246.5 L334.3,239.9 Q338.4,235.5 341.5,230.2 Q345.3,225.6 350.3,221.9" fill="none" stroke="#c9962b" stroke-width="3.32" stroke-linecap="round" stroke-linejoin="round" opacity="0.95"/>
  <path d="M329.9,251.9 L328.5,248.7 Q326.9,245.6 326.3,242.1 L323.6,239.6 Q323.8,235.6 322.0,232.6 L319.0,230.3 L317.3,227.3 L315.3,224.5" fill="none" stroke="#c9962b" stroke-width="1.69" stroke-linecap="round" stroke-linejoin="round" opacity="0.95"/>
  <path d="M326.9,245.6 L324.0,247.3 L321.3,249.6 Q317.9,250.6 315.3,252.8 Q311.3,252.7 308.4,254.6 L305.6,256.6 L301.7,256.8 Q299.7,260.1 297.0,262.3 Q294.1,264.1 291.1,265.8" fill="none" stroke="#c9962b" stroke-width="2.21" stroke-linecap="round" stroke-linejoin="round" opacity="0.95"/>
  <path d="M334.3,239.9 L333.0,236.2 Q333.0,231.3 330.6,228.7 Q326.1,228.1 321.9,227.2 Q320.3,223.8 318.5,220.7 L314.7,219.4" fill="none" stroke="#c9962b" stroke-width="1.83" stroke-linecap="round" stroke-linejoin="round" opacity="0.95"/>
  <path d="M478.9,91.4 Q452.7,95.3 427.9,102.3 L398.7,99.6 Q368.3,94.5 348.6,112.5 Q321.8,115.1 297.3,122.7 L283.6,153.6 L267.0,178.2 Q248.8,199.3 225.4,209.1 Q201.6,218.4 179.2,230.4" fill="none" stroke="#c9962b" stroke-width="4.59" stroke-linecap="round" stroke-linejoin="round" opacity="0.95"/>
  <path d="M321.8,115.1 L325.8,125.0 Q331.8,134.0 335.7,143.9 Q340.4,153.5 346.6,162.3 Q348.0,173.5 354.8,182.0 Q359.1,191.8 363.6,201.4 L367.5,211.4" fill="none" stroke="#c9962b" stroke-width="3.18" stroke-linecap="round" stroke-linejoin="round" opacity="0.95"/>
  <path d="M398.7,99.6 Q401.8,88.5 406.2,77.7 Q409.9,66.8 416.4,56.5 L415.5,44.5 Q418.2,33.4 417.0,21.3 L419.1,10.0" fill="none" stroke="#c9962b" stroke-width="3.52" stroke-linecap="round" stroke-linejoin="round" opacity="0.95"/>
  <path d="M283.6,153.6 L273.0,149.4 L261.8,148.5 Q250.9,145.7 239.6,145.2 L228.1,145.7 Q216.9,144.8 205.5,145.0 Q194.9,140.7 184.0,137.7 L173.4,133.3" fill="none" stroke="#c9962b" stroke-width="3.64" stroke-linecap="round" stroke-linejoin="round" opacity="0.95"/>
  <path d="M194.9,140.7 L195.7,136.7 Q197.6,132.9 199.8,129.2 L202.2,125.6 Q204.0,121.8 204.5,117.6 L205.2,113.5 Q204.6,108.9 205.0,104.7 L206.5,100.8 L208.2,97.0" fill="none" stroke="#c9962b" stroke-width="1.76" stroke-linecap="round" stroke-linejoin="round" opacity="0.95"/>
  <path d="M197.6,132.9 L196.2,129.1 Q193.1,126.7 191.1,123.3 L188.7,120.3 Q185.0,118.4 182.7,115.3 L180.0,112.5" fill="none" stroke="#c9962b" stroke-width="2.01" stroke-linecap="round" stroke-linejoin="round" opacity="0.95"/>
  <path d="M194.9,140.7 L194.4,144.7 Q194.6,148.6 195.0,152.5 L194.0,156.4 Q191.3,160.3 191.6,164.2 Q193.0,168.2 192.4,172.1 L191.3,176.0 Q193.0,179.9 193.6,183.8 L194.5,187.8" fill="none" stroke="#c9962b" stroke-width="1.62" stroke-linecap="round" stroke-linejoin="round" opacity="0.95"/>
  <path d="M179.2,230.4 L160.7,245.6 Q147.9,265.2 127.1,278.7 Q108.2,293.6 96.8,314.3 Q85.7,335.2 72.5,354.5 Q63.0,376.6 51.4,397.2 Q37.4,415.8 23.4,434.5 L8.9,452.8" fill="none" stroke="#c9962b" stroke-width="4.74" stroke-linecap="round" stroke-linejoin="round" opacity="0.95"/>
  <path d="M108.2,293.6 Q114.7,298.1 121.9,301.3 L127.9,306.8 Q136.9,306.4 145.0,307.7 L150.8,313.6 L158.5,315.7 Q166.4,317.5 172.4,322.8 Q178.9,327.3 185.5,331.5 L191.6,336.9" fill="none" stroke="#c9962b" stroke-width="3.26" stroke-linecap="round" stroke-linejoin="round" opacity="0.95"/>
  <path d="M178.9,327.3 L176.5,329.5 Q175.3,332.6 172.6,334.6 Q172.5,338.5 173.6,343.3 L169.7,344.5 L169.2,348.1 L165.1,349.1 Q162.1,350.9 159.7,353.1 L158.0,356.0" fill="none" stroke="#c9962b" stroke-width="1.72" stroke-linecap="round" stroke-linejoin="round" opacity="0.95"/>
  <path d="M169.7,344.5 Q168.0,341.3 166.5,337.9 Q163.7,335.3 162.4,331.8 Q160.7,328.5 159.9,324.7 Q157.7,321.8 154.8,319.2 Q152.9,316.1 152.3,312.1 Q150.0,309.2 147.4,306.5" fill="none" stroke="#c9962b" stroke-width="2.06" stroke-linecap="round" stroke-linejoin="round" opacity="0.95"/>
  <path d="M63.0,376.6 L71.5,379.8 Q79.9,383.5 88.2,387.2 Q96.4,391.1 105.5,393.2 Q114.8,394.6 121.8,401.3 Q130.1,405.1 137.8,410.3" fill="none" stroke="#c9962b" stroke-width="3.54" stroke-linecap="round" stroke-linejoin="round" opacity="0.95"/>
  <path d="M121.8,401.3 L124.1,397.9 Q125.3,393.8 128.4,391.0 L128.6,386.1 L132.8,384.0 L136.5,381.6 Q136.4,376.6 140.2,374.2 Q142.8,371.0 144.9,367.5 L147.2,364.1" fill="none" stroke="#c9962b" stroke-width="2.20" stroke-linecap="round" stroke-linejoin="round" opacity="0.95"/>
  <path d="M136.4,376.6 L140.5,379.7 Q144.2,384.3 149.2,384.5 L154.6,383.2 L159.9,382.4 L163.8,386.4 Q169.0,385.8 173.7,386.9 Q178.3,388.7 182.7,390.6" fill="none" stroke="#c9962b" stroke-width="2.03" stroke-linecap="round" stroke-linejoin="round" opacity="0.95"/>
  <path d="M96.8,314.3 Q88.0,314.7 78.6,319.2 L69.0,325.5 L59.9,327.2 Q51.0,328.0 43.0,321.3 Q34.7,317.4 26.5,312.3 Q18.4,306.8 10.0,303.4" fill="none" stroke="#c9962b" stroke-width="2.77" stroke-linecap="round" stroke-linejoin="round" opacity="0.95"/>
  <path d="M85.7,335.2 Q77.4,331.1 69.7,325.7 L63.1,317.8 L53.4,316.8 L44.8,313.2 L35.1,312.2 L26.7,308.1 L18.2,304.5 L10.0,300.1" fill="none" stroke="#c9962b" stroke-width="3.33" stroke-linecap="round" stroke-linejoin="round" opacity="0.95"/>
  <path d="M173.9,15.7 Q178.5,41.5 185.9,66.8 Q193.7,92.0 199.0,117.8 L202.7,143.9 Q203.0,170.6 199.9,198.1 L205.1,223.9 Q217.1,248.2 209.9,276.5 Q203.1,304.8 217.8,328.6 L225.8,353.7 L240.4,377.6 Q254.4,401.5 259.7,427.2 Q263.4,453.3 267.9,479.2 L274.8,504.6" fill="none" stroke="#c9962b" stroke-width="4.27" stroke-linecap="round" stroke-linejoin="round" opacity="0.95"/>
  <path d="M203.1,304.8 Q196.4,302.7 189.7,300.9 L182.8,300.0 Q176.0,298.8 169.3,296.3 L162.3,296.3 L155.6,294.1 Q148.3,296.0 141.4,294.8 Q134.5,294.1 127.7,292.8" fill="none" stroke="#c9962b" stroke-width="3.49" stroke-linecap="round" stroke-linejoin="round" opacity="0.95"/>
  <path d="M169.3,296.3 Q167.3,299.3 164.7,302.0 Q163.8,305.5 163.2,309.2 L162.6,312.9 Q160.0,315.6 159.0,319.1 L158.8,323.0 L156.3,325.8 Q154.2,328.8 152.4,331.8" fill="none" stroke="#c9962b" stroke-width="1.92" stroke-linecap="round" stroke-linejoin="round" opacity="0.95"/>
  <path d="M193.7,92.0 L183.0,99.2 L173.2,107.8 L161.5,113.2 Q147.7,115.0 137.6,123.1 Q127.6,131.6 116.2,137.4" fill="none" stroke="#c9962b" stroke-width="2.93" stroke-linecap="round" stroke-linejoin="round" opacity="0.95"/>
  <path d="M137.6,123.1 L134.1,121.9 Q130.9,120.4 128.8,117.5 Q126.6,114.8 124.3,112.3 Q120.3,111.6 118.4,108.5 L116.6,105.4 L113.8,103.3" fill="none" stroke="#c9962b" stroke-width="1.76" stroke-linecap="round" stroke-linejoin="round" opacity="0.95"/>
  <path d="M120.3,111.6 L123.6,109.8 Q125.6,106.4 129.3,105.0 L130.8,101.0 Q133.7,98.6 135.1,94.5 Q139.5,93.9 143.2,92.6" fill="none" stroke="#c9962b" stroke-width="1.84" stroke-linecap="round" stroke-linejoin="round" opacity="0.95"/>
  <path d="M147.7,115.0 Q144.7,111.8 141.8,108.6 Q140.0,104.7 137.2,101.3 Q135.0,97.7 133.5,93.5 Q131.4,89.8 128.0,86.9 Q125.5,83.4 124.6,78.9 L122.2,75.3" fill="none" stroke="#c9962b" stroke-width="1.97" stroke-linecap="round" stroke-linejoin="round" opacity="0.95"/>
  <path d="M131.4,89.8 Q127.9,92.9 124.7,96.2 Q122.3,100.3 118.5,103.0 Q114.7,105.7 112.0,109.5 Q108.8,112.8 105.3,115.8 L102.1,119.1 L98.5,122.0" fill="none" stroke="#c9962b" stroke-width="1.84" stroke-linecap="round" stroke-linejoin="round" opacity="0.95"/>
  <path d="M10.9,240.4 Q36.7,245.7 62.0,252.9 L86.9,261.3 L110.8,273.6 Q135.9,281.6 162.1,285.2 Q187.7,291.4 212.9,298.7 Q238.2,305.9 266.8,300.6 Q293.6,302.2 322.0,297.8 Q345.2,312.6 370.1,321.4 L394.9,330.3 Q417.8,346.2 442.8,354.6 L467.9,362.4 L493.2,369.4" fill="none" stroke="#c9962b" stroke-width="4.71" stroke-linecap="round" stroke-linejoin="round" opacity="0.95"/>
  <path d="M86.9,261.3 L92.4,250.9 Q98.8,241.0 105.9,231.6 Q108.6,219.4 115.1,209.6 L123.6,201.0 L132.2,192.6 L139.1,183.0 L144.1,172.3 L150.6,162.5 L156.4,152.2" fill="none" stroke="#c9962b" stroke-width="3.39" stroke-linecap="round" stroke-linejoin="round" opacity="0.95"/>
  <path d="M132.2,192.6 L129.2,191.3 L126.8,188.8 Q124.2,186.9 121.5,185.0 Q119.2,182.5 116.3,180.9 L113.1,179.8 L110.5,177.7" fill="none" stroke="#c9962b" stroke-width="2.28" stroke-linecap="round" stroke-linejoin="round" opacity="0.95"/>
  <path d="M144.1,172.3 Q141.6,170.5 139.3,168.3 L136.4,167.1 Q132.7,167.2 131.1,163.9 L128.4,162.5 L127.1,158.7 L123.7,158.3 L120.1,158.3 L117.7,156.4" fill="none" stroke="#c9962b" stroke-width="1.89" stroke-linecap="round" stroke-linejoin="round" opacity="0.95"/>
  <path d="M132.7,167.2 Q131.1,169.6 130.1,172.3 Q128.7,174.8 126.8,177.1 Q126.7,180.2 126.0,183.0 Q124.3,185.4 122.8,187.8" fill="none" stroke="#c9962b" stroke-width="1.89" stroke-linecap="round" stroke-linejoin="round" opacity="0.95"/>
  <path d="M417.8,346.2 L419.2,335.1 Q419.6,323.8 420.2,312.5 Q423.1,301.6 429.8,291.3 L432.0,280.3 Q429.5,268.6 429.3,257.2 Q430.7,246.1 433.9,235.2 L437.2,224.4" fill="none" stroke="#c9962b" stroke-width="3.04" stroke-linecap="round" stroke-linejoin="round" opacity="0.95"/>
  <path d="M430.7,246.1 L428.7,245.0 Q426.7,244.1 424.7,243.2 L422.9,241.8 Q421.4,239.8 419.6,238.4 Q417.9,236.9 415.2,237.2 Q413.1,236.5 410.7,236.2" fill="none" stroke="#c9962b" stroke-width="1.90" stroke-linecap="round" stroke-linejoin="round" opacity="0.95"/>
  <path d="M423.1,301.6 Q424.6,302.7 426.0,304.0 Q427.6,305.1 429.1,306.3 Q431.4,306.3 433.0,307.3 Q434.1,309.0 436.7,308.4 Q437.8,310.4 439.5,311.2 Q440.8,312.7 442.3,313.9" fill="none" stroke="#c9962b" stroke-width="1.70" stroke-linecap="round" stroke-linejoin="round" opacity="0.95"/>
  <path d="M434.1,309.0 Q432.5,310.4 431.9,312.3 Q430.8,314.0 430.5,316.1 Q430.9,318.6 429.3,320.0 L427.4,321.2 L425.7,322.6 Q424.8,324.4 424.5,326.5 Q424.0,328.5 422.7,330.0" fill="none" stroke="#c9962b" stroke-width="1.85" stroke-linecap="round" stroke-linejoin="round" opacity="0.95"/>
  <path d="M16.3,43.3 L40.2,54.5 Q64.9,62.8 90.4,67.8 Q115.7,73.7 142.2,74.9 Q169.9,71.7 193.9,82.5 L216.9,97.1 L241.7,104.5 Q268.4,105.2 291.7,118.4 L317.1,124.1 Q344.2,122.9 369.4,129.2 L393.7,139.0 Q420.3,139.7 443.5,153.7 L468.2,161.9 L493.2,168.5" fill="none" stroke="#c9962b" stroke-width="5.03" stroke-linecap="round" stroke-linejoin="round" opacity="0.95"/>
  <path d="M216.9,97.1 L214.3,101.7 Q212.8,106.6 212.8,112.1 L211.0,117.0 L213.1,123.2 L210.6,127.8 L208.2,132.4 L203.6,136.3 Q203.5,141.8 203.9,147.4 Q200.5,151.7 196.4,155.8" fill="none" stroke="#c9962b" stroke-width="3.70" stroke-linecap="round" stroke-linejoin="round" opacity="0.95"/>
  <path d="M203.5,141.8 L206.5,140.2 L209.8,139.4 Q213.1,138.4 216.1,136.9 L219.6,136.6 Q222.5,134.7 225.8,133.8 L229.0,132.8 Q232.1,131.5 235.2,130.0" fill="none" stroke="#c9962b" stroke-width="2.26" stroke-linecap="round" stroke-linejoin="round" opacity="0.95"/>
  <path d="M213.1,123.2 Q210.5,121.9 207.9,119.0 Q205.2,118.7 202.5,119.0 Q199.7,120.6 197.0,121.7 L194.3,122.3 L191.6,122.6" fill="none" stroke="#c9962b" stroke-width="2.21" stroke-linecap="round" stroke-linejoin="round" opacity="0.95"/>
  <path d="M443.5,153.7 L442.0,164.1 Q440.0,174.4 437.0,184.7 Q430.8,194.8 435.2,205.5 Q438.7,216.2 439.0,226.7 L436.2,236.9 Q435.8,247.4 437.6,257.9 L436.5,268.3" fill="none" stroke="#c9962b" stroke-width="3.05" stroke-linecap="round" stroke-linejoin="round" opacity="0.95"/>
  <path d="M268.4,105.2 Q264.0,110.8 260.6,117.0 L257.1,123.1 Q252.9,128.8 248.8,134.5 Q244.4,140.1 242.3,147.0 Q241.0,154.3 234.9,158.9 Q230.7,164.6 230.1,172.4" fill="none" stroke="#c9962b" stroke-width="3.44" stroke-linecap="round" stroke-linejoin="round" opacity="0.95"/>
  <path d="M248.8,134.5 Q251.4,135.6 254.0,137.0 L256.8,137.6 L259.5,138.8 Q262.5,138.7 264.8,140.8 Q268.0,140.4 270.5,142.0 Q272.8,144.3 275.8,144.4 L279.0,143.7 L281.8,144.3" fill="none" stroke="#c9962b" stroke-width="2.25" stroke-linecap="round" stroke-linejoin="round" opacity="0.95"/>
  <path d="M272.8,144.3 L273.4,146.6 Q274.7,149.0 273.2,151.1 L271.9,153.2 Q269.9,155.2 269.4,157.4 L271.0,159.9 L271.4,162.2 Q271.6,164.5 271.4,166.7 L269.9,168.8" fill="none" stroke="#c9962b" stroke-width="1.68" stroke-linecap="round" stroke-linejoin="round" opacity="0.95"/>
  <path d="M133.8,495.9 Q138.5,473.9 137.6,451.0 Q140.4,428.7 142.6,406.3 Q138.4,382.8 148.9,361.8 Q154.0,339.9 161.0,318.4 Q163.6,296.0 171.8,274.7 Q173.5,252.2 179.2,230.4" fill="none" stroke="#c9962b" stroke-width="4.28" stroke-linecap="round" stroke-linejoin="round" opacity="0.95"/>
  <path d="M171.8,274.7 L178.6,276.5 L184.2,280.2 L189.4,284.7 Q197.8,283.8 206.6,282.1 L214.8,281.5 Q216.6,291.8 221.7,296.6 L224.9,304.5 Q230.6,308.0 236.0,312.3" fill="none" stroke="#c9962b" stroke-width="2.78" stroke-linecap="round" stroke-linejoin="round" opacity="0.95"/>
  <path d="M171.8,274.7 L161.8,271.4 L152.9,265.0 L143.3,260.6 Q132.6,259.1 122.4,256.2 Q111.2,256.1 102.3,249.8 L92.4,246.1" fill="none" stroke="#c9962b" stroke-width="3.29" stroke-linecap="round" stroke-linejoin="round" opacity="0.95"/>
  <path d="M143.3,260.6 Q143.4,264.2 142.4,267.6 L140.7,270.8 Q141.0,274.5 138.5,277.6 Q138.6,281.2 137.9,284.7 L137.6,288.2" fill="none" stroke="#c9962b" stroke-width="1.84" stroke-linecap="round" stroke-linejoin="round" opacity="0.95"/>
  <path d="M161.0,318.4 L170.8,318.4 L180.6,320.2 L190.4,320.9 Q200.2,321.6 210.2,319.5 L219.9,321.6 L229.7,323.7 Q239.4,324.9 249.4,323.6" fill="none" stroke="#c9962b" stroke-width="3.18" stroke-linecap="round" stroke-linejoin="round" opacity="0.95"/>
  <path d="M179.2,230.4 Q200.2,216.0 225.0,206.8 Q243.1,188.4 261.1,169.9 L282.1,155.5 Q301.7,139.3 321.6,123.3 Q342.4,108.6 360.9,90.9 Q382.9,77.8 406.2,66.5 Q425.9,50.4 446.4,35.2" fill="none" stroke="#c9962b" stroke-width="4.56" stroke-linecap="round" stroke-linejoin="round" opacity="0.95"/>
  <path d="M360.9,90.9 Q366.5,99.1 370.8,107.9 Q374.6,116.9 381.0,124.6 Q381.8,135.2 385.4,144.3 Q390.8,152.6 396.7,160.6 Q402.7,168.6 405.9,177.9 Q408.7,187.4 412.7,196.4" fill="none" stroke="#c9962b" stroke-width="3.68" stroke-linecap="round" stroke-linejoin="round" opacity="0.95"/>
  <path d="M381.0,124.6 Q385.8,124.6 390.6,124.1 Q395.4,124.9 400.3,125.5 Q405.0,124.8 409.8,124.4 Q414.6,123.6 419.4,123.0" fill="none" stroke="#c9962b" stroke-width="2.15" stroke-linecap="round" stroke-linejoin="round" opacity="0.95"/>
  <path d="M374.6,116.9 L378.0,114.3 Q381.2,111.4 386.1,110.2 Q391.5,109.7 393.6,105.7 L395.1,101.0 Q396.6,96.3 401.1,94.9 L405.5,93.2 L408.7,90.4 Q411.5,87.1 411.7,81.2" fill="none" stroke="#c9962b" stroke-width="2.14" stroke-linecap="round" stroke-linejoin="round" opacity="0.95"/>
  <path d="M395.1,101.0 Q398.1,102.4 401.0,103.8 Q404.5,103.5 407.5,105.0 Q410.7,105.5 414.5,104.3 Q417.7,105.0 421.0,105.4 Q423.7,107.5 426.0,110.9" fill="none" stroke="#c9962b" stroke-width="1.87" stroke-linecap="round" stroke-linejoin="round" opacity="0.95"/>
  <path d="M301.7,139.3 Q305.5,144.0 310.6,147.7 L315.7,151.5 L318.3,157.0 L323.2,160.9 Q329.5,163.9 329.0,171.5 Q335.7,174.2 334.2,182.5 L336.1,188.4 L338.7,193.9" fill="none" stroke="#c9962b" stroke-width="2.90" stroke-linecap="round" stroke-linejoin="round" opacity="0.95"/>
  <path d="M329.0,171.5 Q326.5,174.4 324.1,177.5 Q321.7,180.5 319.5,183.8 Q314.9,184.5 310.8,185.6 Q309.4,189.7 305.8,191.5 Q303.7,194.9 301.2,197.8 L297.7,199.7" fill="none" stroke="#c9962b" stroke-width="2.25" stroke-linecap="round" stroke-linejoin="round" opacity="0.95"/>
  <path d="M335.7,174.2 L338.6,173.4 Q341.6,173.2 344.6,172.9 Q347.7,173.4 350.9,174.5 L353.4,171.7 Q356.5,172.3 359.3,171.0 L362.0,169.6 L364.9,168.7 L367.6,167.5" fill="none" stroke="#c9962b" stroke-width="1.84" stroke-linecap="round" stroke-linejoin="round" opacity="0.95"/>
  <path d="M350.9,174.5 L352.0,176.3 L352.0,178.3 Q353.1,180.1 353.8,182.0 Q356.3,183.5 353.7,185.9 L354.5,187.8 Q354.0,189.9 355.3,191.6 Q355.4,193.6 355.1,195.6 L354.8,197.6" fill="none" stroke="#c9962b" stroke-width="1.92" stroke-linecap="round" stroke-linejoin="round" opacity="0.95"/>
  <path d="M65.5,2.6 L84.7,20.1 Q105.3,36.5 126.5,52.3 Q141.5,73.5 164.0,88.2 Q175.1,112.8 188.2,135.7 Q201.0,158.8 220.3,176.3 L234.7,197.9 L249.7,219.2 Q264.4,240.6 290.6,252.1 Q311.7,268.1 320.2,294.9 Q338.4,313.3 355.2,333.0 L371.4,353.1 Q390.9,370.5 406.7,390.9 L420.8,413.0 L437.8,432.5" fill="none" stroke="#e6b94a" stroke-width="4.43" stroke-linecap="round" stroke-linejoin="round" opacity="1.00"/>
  <path d="M164.0,88.2 L158.3,95.6 L153.8,103.8 Q146.3,109.9 139.5,116.4 Q136.2,125.6 130.3,132.8 L124.6,140.1 L119.7,148.1 L113.4,155.1" fill="none" stroke="#e6b94a" stroke-width="2.09" stroke-linecap="round" stroke-linejoin="round" opacity="1.00"/>
  <path d="M130.3,132.8 Q133.2,134.4 136.3,135.9 Q139.5,136.8 142.7,137.7 Q145.8,138.9 149.5,138.6 L152.5,140.1 L155.6,141.2 Q158.6,142.7 161.8,143.7 L164.3,146.4" fill="none" stroke="#e6b94a" stroke-width="1.07" stroke-linecap="round" stroke-linejoin="round" opacity="1.00"/>
  <path d="M155.6,141.2 L156.8,136.5 L157.2,131.7 L159.3,127.1 L158.4,122.2 Q158.0,117.4 157.2,112.6 Q157.7,107.8 158.4,103.0 L158.8,98.3" fill="none" stroke="#e6b94a" stroke-width="1.05" stroke-linecap="round" stroke-linejoin="round" opacity="1.00"/>
  <path d="M311.7,268.1 L316.3,264.1 Q320.3,259.5 322.8,253.8 Q329.9,251.9 332.8,246.5 L334.3,239.9 Q338.4,235.5 341.5,230.2 Q345.3,225.6 350.3,221.9" fill="none" stroke="#e6b94a" stroke-width="2.62" stroke-linecap="round" stroke-linejoin="round" opacity="1.00"/>
  <path d="M329.9,251.9 L328.5,248.7 Q326.9,245.6 326.3,242.1 L323.6,239.6 Q323.8,235.6 322.0,232.6 L319.0,230.3 L317.3,227.3 L315.3,224.5" fill="none" stroke="#e6b94a" stroke-width="0.99" stroke-linecap="round" stroke-linejoin="round" opacity="1.00"/>
  <path d="M326.9,245.6 L324.0,247.3 L321.3,249.6 Q317.9,250.6 315.3,252.8 Q311.3,252.7 308.4,254.6 L305.6,256.6 L301.7,256.8 Q299.7,260.1 297.0,262.3 Q294.1,264.1 291.1,265.8" fill="none" stroke="#e6b94a" stroke-width="1.51" stroke-linecap="round" stroke-linejoin="round" opacity="1.00"/>
  <path d="M334.3,239.9 L333.0,236.2 Q333.0,231.3 330.6,228.7 Q326.1,228.1 321.9,227.2 Q320.3,223.8 318.5,220.7 L314.7,219.4" fill="none" stroke="#e6b94a" stroke-width="1.13" stroke-linecap="round" stroke-linejoin="round" opacity="1.00"/>
  <path d="M478.9,91.4 Q452.7,95.3 427.9,102.3 L398.7,99.6 Q368.3,94.5 348.6,112.5 Q321.8,115.1 297.3,122.7 L283.6,153.6 L267.0,178.2 Q248.8,199.3 225.4,209.1 Q201.6,218.4 179.2,230.4" fill="none" stroke="#e6b94a" stroke-width="3.89" stroke-linecap="round" stroke-linejoin="round" opacity="1.00"/>
  <path d="M321.8,115.1 L325.8,125.0 Q331.8,134.0 335.7,143.9 Q340.4,153.5 346.6,162.3 Q348.0,173.5 354.8,182.0 Q359.1,191.8 363.6,201.4 L367.5,211.4" fill="none" stroke="#e6b94a" stroke-width="2.48" stroke-linecap="round" stroke-linejoin="round" opacity="1.00"/>
  <path d="M398.7,99.6 Q401.8,88.5 406.2,77.7 Q409.9,66.8 416.4,56.5 L415.5,44.5 Q418.2,33.4 417.0,21.3 L419.1,10.0" fill="none" stroke="#e6b94a" stroke-width="2.82" stroke-linecap="round" stroke-linejoin="round" opacity="1.00"/>
  <path d="M283.6,153.6 L273.0,149.4 L261.8,148.5 Q250.9,145.7 239.6,145.2 L228.1,145.7 Q216.9,144.8 205.5,145.0 Q194.9,140.7 184.0,137.7 L173.4,133.3" fill="none" stroke="#e6b94a" stroke-width="2.94" stroke-linecap="round" stroke-linejoin="round" opacity="1.00"/>
  <path d="M194.9,140.7 L195.7,136.7 Q197.6,132.9 199.8,129.2 L202.2,125.6 Q204.0,121.8 204.5,117.6 L205.2,113.5 Q204.6,108.9 205.0,104.7 L206.5,100.8 L208.2,97.0" fill="none" stroke="#e6b94a" stroke-width="1.06" stroke-linecap="round" stroke-linejoin="round" opacity="1.00"/>
  <path d="M197.6,132.9 L196.2,129.1 Q193.1,126.7 191.1,123.3 L188.7,120.3 Q185.0,118.4 182.7,115.3 L180.0,112.5" fill="none" stroke="#e6b94a" stroke-width="1.31" stroke-linecap="round" stroke-linejoin="round" opacity="1.00"/>
  <path d="M194.9,140.7 L194.4,144.7 Q194.6,148.6 195.0,152.5 L194.0,156.4 Q191.3,160.3 191.6,164.2 Q193.0,168.2 192.4,172.1 L191.3,176.0 Q193.0,179.9 193.6,183.8 L194.5,187.8" fill="none" stroke="#e6b94a" stroke-width="0.92" stroke-linecap="round" stroke-linejoin="round" opacity="1.00"/>
  <path d="M179.2,230.4 L160.7,245.6 Q147.9,265.2 127.1,278.7 Q108.2,293.6 96.8,314.3 Q85.7,335.2 72.5,354.5 Q63.0,376.6 51.4,397.2 Q37.4,415.8 23.4,434.5 L8.9,452.8" fill="none" stroke="#e6b94a" stroke-width="4.04" stroke-linecap="round" stroke-linejoin="round" opacity="1.00"/>
  <path d="M108.2,293.6 Q114.7,298.1 121.9,301.3 L127.9,306.8 Q136.9,306.4 145.0,307.7 L150.8,313.6 L158.5,315.7 Q166.4,317.5 172.4,322.8 Q178.9,327.3 185.5,331.5 L191.6,336.9" fill="none" stroke="#e6b94a" stroke-width="2.56" stroke-linecap="round" stroke-linejoin="round" opacity="1.00"/>
  <path d="M178.9,327.3 L176.5,329.5 Q175.3,332.6 172.6,334.6 Q172.5,338.5 173.6,343.3 L169.7,344.5 L169.2,348.1 L165.1,349.1 Q162.1,350.9 159.7,353.1 L158.0,356.0" fill="none" stroke="#e6b94a" stroke-width="1.02" stroke-linecap="round" stroke-linejoin="round" opacity="1.00"/>
  <path d="M169.7,344.5 Q168.0,341.3 166.5,337.9 Q163.7,335.3 162.4,331.8 Q160.7,328.5 159.9,324.7 Q157.7,321.8 154.8,319.2 Q152.9,316.1 152.3,312.1 Q150.0,309.2 147.4,306.5" fill="none" stroke="#e6b94a" stroke-width="1.36" stroke-linecap="round" stroke-linejoin="round" opacity="1.00"/>
  <path d="M63.0,376.6 L71.5,379.8 Q79.9,383.5 88.2,387.2 Q96.4,391.1 105.5,393.2 Q114.8,394.6 121.8,401.3 Q130.1,405.1 137.8,410.3" fill="none" stroke="#e6b94a" stroke-width="2.84" stroke-linecap="round" stroke-linejoin="round" opacity="1.00"/>
  <path d="M121.8,401.3 L124.1,397.9 Q125.3,393.8 128.4,391.0 L128.6,386.1 L132.8,384.0 L136.5,381.6 Q136.4,376.6 140.2,374.2 Q142.8,371.0 144.9,367.5 L147.2,364.1" fill="none" stroke="#e6b94a" stroke-width="1.50" stroke-linecap="round" stroke-linejoin="round" opacity="1.00"/>
  <path d="M136.4,376.6 L140.5,379.7 Q144.2,384.3 149.2,384.5 L154.6,383.2 L159.9,382.4 L163.8,386.4 Q169.0,385.8 173.7,386.9 Q178.3,388.7 182.7,390.6" fill="none" stroke="#e6b94a" stroke-width="1.33" stroke-linecap="round" stroke-linejoin="round" opacity="1.00"/>
  <path d="M96.8,314.3 Q88.0,314.7 78.6,319.2 L69.0,325.5 L59.9,327.2 Q51.0,328.0 43.0,321.3 Q34.7,317.4 26.5,312.3 Q18.4,306.8 10.0,303.4" fill="none" stroke="#e6b94a" stroke-width="2.07" stroke-linecap="round" stroke-linejoin="round" opacity="1.00"/>
  <path d="M85.7,335.2 Q77.4,331.1 69.7,325.7 L63.1,317.8 L53.4,316.8 L44.8,313.2 L35.1,312.2 L26.7,308.1 L18.2,304.5 L10.0,300.1" fill="none" stroke="#e6b94a" stroke-width="2.63" stroke-linecap="round" stroke-linejoin="round" opacity="1.00"/>
  <path d="M173.9,15.7 Q178.5,41.5 185.9,66.8 Q193.7,92.0 199.0,117.8 L202.7,143.9 Q203.0,170.6 199.9,198.1 L205.1,223.9 Q217.1,248.2 209.9,276.5 Q203.1,304.8 217.8,328.6 L225.8,353.7 L240.4,377.6 Q254.4,401.5 259.7,427.2 Q263.4,453.3 267.9,479.2 L274.8,504.6" fill="none" stroke="#e6b94a" stroke-width="3.57" stroke-linecap="round" stroke-linejoin="round" opacity="1.00"/>
  <path d="M203.1,304.8 Q196.4,302.7 189.7,300.9 L182.8,300.0 Q176.0,298.8 169.3,296.3 L162.3,296.3 L155.6,294.1 Q148.3,296.0 141.4,294.8 Q134.5,294.1 127.7,292.8" fill="none" stroke="#e6b94a" stroke-width="2.79" stroke-linecap="round" stroke-linejoin="round" opacity="1.00"/>
  <path d="M169.3,296.3 Q167.3,299.3 164.7,302.0 Q163.8,305.5 163.2,309.2 L162.6,312.9 Q160.0,315.6 159.0,319.1 L158.8,323.0 L156.3,325.8 Q154.2,328.8 152.4,331.8" fill="none" stroke="#e6b94a" stroke-width="1.22" stroke-linecap="round" stroke-linejoin="round" opacity="1.00"/>
  <path d="M193.7,92.0 L183.0,99.2 L173.2,107.8 L161.5,113.2 Q147.7,115.0 137.6,123.1 Q127.6,131.6 116.2,137.4" fill="none" stroke="#e6b94a" stroke-width="2.23" stroke-linecap="round" stroke-linejoin="round" opacity="1.00"/>
  <path d="M137.6,123.1 L134.1,121.9 Q130.9,120.4 128.8,117.5 Q126.6,114.8 124.3,112.3 Q120.3,111.6 118.4,108.5 L116.6,105.4 L113.8,103.3" fill="none" stroke="#e6b94a" stroke-width="1.06" stroke-linecap="round" stroke-linejoin="round" opacity="1.00"/>
  <path d="M120.3,111.6 L123.6,109.8 Q125.6,106.4 129.3,105.0 L130.8,101.0 Q133.7,98.6 135.1,94.5 Q139.5,93.9 143.2,92.6" fill="none" stroke="#e6b94a" stroke-width="1.14" stroke-linecap="round" stroke-linejoin="round" opacity="1.00"/>
  <path d="M147.7,115.0 Q144.7,111.8 141.8,108.6 Q140.0,104.7 137.2,101.3 Q135.0,97.7 133.5,93.5 Q131.4,89.8 128.0,86.9 Q125.5,83.4 124.6,78.9 L122.2,75.3" fill="none" stroke="#e6b94a" stroke-width="1.27" stroke-linecap="round" stroke-linejoin="round" opacity="1.00"/>
  <path d="M131.4,89.8 Q127.9,92.9 124.7,96.2 Q122.3,100.3 118.5,103.0 Q114.7,105.7 112.0,109.5 Q108.8,112.8 105.3,115.8 L102.1,119.1 L98.5,122.0" fill="none" stroke="#e6b94a" stroke-width="1.14" stroke-linecap="round" stroke-linejoin="round" opacity="1.00"/>
  <path d="M10.9,240.4 Q36.7,245.7 62.0,252.9 L86.9,261.3 L110.8,273.6 Q135.9,281.6 162.1,285.2 Q187.7,291.4 212.9,298.7 Q238.2,305.9 266.8,300.6 Q293.6,302.2 322.0,297.8 Q345.2,312.6 370.1,321.4 L394.9,330.3 Q417.8,346.2 442.8,354.6 L467.9,362.4 L493.2,369.4" fill="none" stroke="#e6b94a" stroke-width="4.01" stroke-linecap="round" stroke-linejoin="round" opacity="1.00"/>
  <path d="M86.9,261.3 L92.4,250.9 Q98.8,241.0 105.9,231.6 Q108.6,219.4 115.1,209.6 L123.6,201.0 L132.2,192.6 L139.1,183.0 L144.1,172.3 L150.6,162.5 L156.4,152.2" fill="none" stroke="#e6b94a" stroke-width="2.69" stroke-linecap="round" stroke-linejoin="round" opacity="1.00"/>
  <path d="M132.2,192.6 L129.2,191.3 L126.8,188.8 Q124.2,186.9 121.5,185.0 Q119.2,182.5 116.3,180.9 L113.1,179.8 L110.5,177.7" fill="none" stroke="#e6b94a" stroke-width="1.58" stroke-linecap="round" stroke-linejoin="round" opacity="1.00"/>
  <path d="M144.1,172.3 Q141.6,170.5 139.3,168.3 L136.4,167.1 Q132.7,167.2 131.1,163.9 L128.4,162.5 L127.1,158.7 L123.7,158.3 L120.1,158.3 L117.7,156.4" fill="none" stroke="#e6b94a" stroke-width="1.19" stroke-linecap="round" stroke-linejoin="round" opacity="1.00"/>
  <path d="M132.7,167.2 Q131.1,169.6 130.1,172.3 Q128.7,174.8 126.8,177.1 Q126.7,180.2 126.0,183.0 Q124.3,185.4 122.8,187.8" fill="none" stroke="#e6b94a" stroke-width="1.19" stroke-linecap="round" stroke-linejoin="round" opacity="1.00"/>
  <path d="M417.8,346.2 L419.2,335.1 Q419.6,323.8 420.2,312.5 Q423.1,301.6 429.8,291.3 L432.0,280.3 Q429.5,268.6 429.3,257.2 Q430.7,246.1 433.9,235.2 L437.2,224.4" fill="none" stroke="#e6b94a" stroke-width="2.34" stroke-linecap="round" stroke-linejoin="round" opacity="1.00"/>
  <path d="M430.7,246.1 L428.7,245.0 Q426.7,244.1 424.7,243.2 L422.9,241.8 Q421.4,239.8 419.6,238.4 Q417.9,236.9 415.2,237.2 Q413.1,236.5 410.7,236.2" fill="none" stroke="#e6b94a" stroke-width="1.20" stroke-linecap="round" stroke-linejoin="round" opacity="1.00"/>
  <path d="M423.1,301.6 Q424.6,302.7 426.0,304.0 Q427.6,305.1 429.1,306.3 Q431.4,306.3 433.0,307.3 Q434.1,309.0 436.7,308.4 Q437.8,310.4 439.5,311.2 Q440.8,312.7 442.3,313.9" fill="none" stroke="#e6b94a" stroke-width="1.00" stroke-linecap="round" stroke-linejoin="round" opacity="1.00"/>
  <path d="M434.1,309.0 Q432.5,310.4 431.9,312.3 Q430.8,314.0 430.5,316.1 Q430.9,318.6 429.3,320.0 L427.4,321.2 L425.7,322.6 Q424.8,324.4 424.5,326.5 Q424.0,328.5 422.7,330.0" fill="none" stroke="#e6b94a" stroke-width="1.15" stroke-linecap="round" stroke-linejoin="round" opacity="1.00"/>
  <path d="M16.3,43.3 L40.2,54.5 Q64.9,62.8 90.4,67.8 Q115.7,73.7 142.2,74.9 Q169.9,71.7 193.9,82.5 L216.9,97.1 L241.7,104.5 Q268.4,105.2 291.7,118.4 L317.1,124.1 Q344.2,122.9 369.4,129.2 L393.7,139.0 Q420.3,139.7 443.5,153.7 L468.2,161.9 L493.2,168.5" fill="none" stroke="#e6b94a" stroke-width="4.33" stroke-linecap="round" stroke-linejoin="round" opacity="1.00"/>
  <path d="M216.9,97.1 L214.3,101.7 Q212.8,106.6 212.8,112.1 L211.0,117.0 L213.1,123.2 L210.6,127.8 L208.2,132.4 L203.6,136.3 Q203.5,141.8 203.9,147.4 Q200.5,151.7 196.4,155.8" fill="none" stroke="#e6b94a" stroke-width="3.00" stroke-linecap="round" stroke-linejoin="round" opacity="1.00"/>
  <path d="M203.5,141.8 L206.5,140.2 L209.8,139.4 Q213.1,138.4 216.1,136.9 L219.6,136.6 Q222.5,134.7 225.8,133.8 L229.0,132.8 Q232.1,131.5 235.2,130.0" fill="none" stroke="#e6b94a" stroke-width="1.56" stroke-linecap="round" stroke-linejoin="round" opacity="1.00"/>
  <path d="M213.1,123.2 Q210.5,121.9 207.9,119.0 Q205.2,118.7 202.5,119.0 Q199.7,120.6 197.0,121.7 L194.3,122.3 L191.6,122.6" fill="none" stroke="#e6b94a" stroke-width="1.51" stroke-linecap="round" stroke-linejoin="round" opacity="1.00"/>
  <path d="M443.5,153.7 L442.0,164.1 Q440.0,174.4 437.0,184.7 Q430.8,194.8 435.2,205.5 Q438.7,216.2 439.0,226.7 L436.2,236.9 Q435.8,247.4 437.6,257.9 L436.5,268.3" fill="none" stroke="#e6b94a" stroke-width="2.35" stroke-linecap="round" stroke-linejoin="round" opacity="1.00"/>
  <path d="M268.4,105.2 Q264.0,110.8 260.6,117.0 L257.1,123.1 Q252.9,128.8 248.8,134.5 Q244.4,140.1 242.3,147.0 Q241.0,154.3 234.9,158.9 Q230.7,164.6 230.1,172.4" fill="none" stroke="#e6b94a" stroke-width="2.74" stroke-linecap="round" stroke-linejoin="round" opacity="1.00"/>
  <path d="M248.8,134.5 Q251.4,135.6 254.0,137.0 L256.8,137.6 L259.5,138.8 Q262.5,138.7 264.8,140.8 Q268.0,140.4 270.5,142.0 Q272.8,144.3 275.8,144.4 L279.0,143.7 L281.8,144.3" fill="none" stroke="#e6b94a" stroke-width="1.55" stroke-linecap="round" stroke-linejoin="round" opacity="1.00"/>
  <path d="M272.8,144.3 L273.4,146.6 Q274.7,149.0 273.2,151.1 L271.9,153.2 Q269.9,155.2 269.4,157.4 L271.0,159.9 L271.4,162.2 Q271.6,164.5 271.4,166.7 L269.9,168.8" fill="none" stroke="#e6b94a" stroke-width="0.98" stroke-linecap="round" stroke-linejoin="round" opacity="1.00"/>
  <path d="M133.8,495.9 Q138.5,473.9 137.6,451.0 Q140.4,428.7 142.6,406.3 Q138.4,382.8 148.9,361.8 Q154.0,339.9 161.0,318.4 Q163.6,296.0 171.8,274.7 Q173.5,252.2 179.2,230.4" fill="none" stroke="#e6b94a" stroke-width="3.58" stroke-linecap="round" stroke-linejoin="round" opacity="1.00"/>
  <path d="M171.8,274.7 L178.6,276.5 L184.2,280.2 L189.4,284.7 Q197.8,283.8 206.6,282.1 L214.8,281.5 Q216.6,291.8 221.7,296.6 L224.9,304.5 Q230.6,308.0 236.0,312.3" fill="none" stroke="#e6b94a" stroke-width="2.08" stroke-linecap="round" stroke-linejoin="round" opacity="1.00"/>
  <path d="M171.8,274.7 L161.8,271.4 L152.9,265.0 L143.3,260.6 Q132.6,259.1 122.4,256.2 Q111.2,256.1 102.3,249.8 L92.4,246.1" fill="none" stroke="#e6b94a" stroke-width="2.59" stroke-linecap="round" stroke-linejoin="round" opacity="1.00"/>
  <path d="M143.3,260.6 Q143.4,264.2 142.4,267.6 L140.7,270.8 Q141.0,274.5 138.5,277.6 Q138.6,281.2 137.9,284.7 L137.6,288.2" fill="none" stroke="#e6b94a" stroke-width="1.14" stroke-linecap="round" stroke-linejoin="round" opacity="1.00"/>
  <path d="M161.0,318.4 L170.8,318.4 L180.6,320.2 L190.4,320.9 Q200.2,321.6 210.2,319.5 L219.9,321.6 L229.7,323.7 Q239.4,324.9 249.4,323.6" fill="none" stroke="#e6b94a" stroke-width="2.48" stroke-linecap="round" stroke-linejoin="round" opacity="1.00"/>
  <path d="M179.2,230.4 Q200.2,216.0 225.0,206.8 Q243.1,188.4 261.1,169.9 L282.1,155.5 Q301.7,139.3 321.6,123.3 Q342.4,108.6 360.9,90.9 Q382.9,77.8 406.2,66.5 Q425.9,50.4 446.4,35.2" fill="none" stroke="#e6b94a" stroke-width="3.86" stroke-linecap="round" stroke-linejoin="round" opacity="1.00"/>
  <path d="M360.9,90.9 Q366.5,99.1 370.8,107.9 Q374.6,116.9 381.0,124.6 Q381.8,135.2 385.4,144.3 Q390.8,152.6 396.7,160.6 Q402.7,168.6 405.9,177.9 Q408.7,187.4 412.7,196.4" fill="none" stroke="#e6b94a" stroke-width="2.98" stroke-linecap="round" stroke-linejoin="round" opacity="1.00"/>
  <path d="M381.0,124.6 Q385.8,124.6 390.6,124.1 Q395.4,124.9 400.3,125.5 Q405.0,124.8 409.8,124.4 Q414.6,123.6 419.4,123.0" fill="none" stroke="#e6b94a" stroke-width="1.45" stroke-linecap="round" stroke-linejoin="round" opacity="1.00"/>
  <path d="M374.6,116.9 L378.0,114.3 Q381.2,111.4 386.1,110.2 Q391.5,109.7 393.6,105.7 L395.1,101.0 Q396.6,96.3 401.1,94.9 L405.5,93.2 L408.7,90.4 Q411.5,87.1 411.7,81.2" fill="none" stroke="#e6b94a" stroke-width="1.44" stroke-linecap="round" stroke-linejoin="round" opacity="1.00"/>
  <path d="M395.1,101.0 Q398.1,102.4 401.0,103.8 Q404.5,103.5 407.5,105.0 Q410.7,105.5 414.5,104.3 Q417.7,105.0 421.0,105.4 Q423.7,107.5 426.0,110.9" fill="none" stroke="#e6b94a" stroke-width="1.17" stroke-linecap="round" stroke-linejoin="round" opacity="1.00"/>
  <path d="M301.7,139.3 Q305.5,144.0 310.6,147.7 L315.7,151.5 L318.3,157.0 L323.2,160.9 Q329.5,163.9 329.0,171.5 Q335.7,174.2 334.2,182.5 L336.1,188.4 L338.7,193.9" fill="none" stroke="#e6b94a" stroke-width="2.20" stroke-linecap="round" stroke-linejoin="round" opacity="1.00"/>
  <path d="M329.0,171.5 Q326.5,174.4 324.1,177.5 Q321.7,180.5 319.5,183.8 Q314.9,184.5 310.8,185.6 Q309.4,189.7 305.8,191.5 Q303.7,194.9 301.2,197.8 L297.7,199.7" fill="none" stroke="#e6b94a" stroke-width="1.55" stroke-linecap="round" stroke-linejoin="round" opacity="1.00"/>
  <path d="M335.7,174.2 L338.6,173.4 Q341.6,173.2 344.6,172.9 Q347.7,173.4 350.9,174.5 L353.4,171.7 Q356.5,172.3 359.3,171.0 L362.0,169.6 L364.9,168.7 L367.6,167.5" fill="none" stroke="#e6b94a" stroke-width="1.14" stroke-linecap="round" stroke-linejoin="round" opacity="1.00"/>
  <path d="M350.9,174.5 L352.0,176.3 L352.0,178.3 Q353.1,180.1 353.8,182.0 Q356.3,183.5 353.7,185.9 L354.5,187.8 Q354.0,189.9 355.3,191.6 Q355.4,193.6 355.1,195.6 L354.8,197.6" fill="none" stroke="#e6b94a" stroke-width="1.22" stroke-linecap="round" stroke-linejoin="round" opacity="1.00"/>
  <path d="M65.5,2.6 L84.7,20.1 Q105.3,36.5 126.5,52.3 Q141.5,73.5 164.0,88.2 Q175.1,112.8 188.2,135.7 Q201.0,158.8 220.3,176.3 L234.7,197.9 L249.7,219.2 Q264.4,240.6 290.6,252.1 Q311.7,268.1 320.2,294.9 Q338.4,313.3 355.2,333.0 L371.4,353.1 Q390.9,370.5 406.7,390.9 L420.8,413.0 L437.8,432.5" fill="none" stroke="#f5d77a" stroke-width="3.13" stroke-linecap="round" stroke-linejoin="round" opacity="0.85"/>
  <path d="M164.0,88.2 L158.3,95.6 L153.8,103.8 Q146.3,109.9 139.5,116.4 Q136.2,125.6 130.3,132.8 L124.6,140.1 L119.7,148.1 L113.4,155.1" fill="none" stroke="#f5d77a" stroke-width="0.79" stroke-linecap="round" stroke-linejoin="round" opacity="0.85"/>
  <path d="M311.7,268.1 L316.3,264.1 Q320.3,259.5 322.8,253.8 Q329.9,251.9 332.8,246.5 L334.3,239.9 Q338.4,235.5 341.5,230.2 Q345.3,225.6 350.3,221.9" fill="none" stroke="#f5d77a" stroke-width="1.32" stroke-linecap="round" stroke-linejoin="round" opacity="0.85"/>
  <path d="M326.9,245.6 L324.0,247.3 L321.3,249.6 Q317.9,250.6 315.3,252.8 Q311.3,252.7 308.4,254.6 L305.6,256.6 L301.7,256.8 Q299.7,260.1 297.0,262.3 Q294.1,264.1 291.1,265.8" fill="none" stroke="#f5d77a" stroke-width="0.40" stroke-linecap="round" stroke-linejoin="round" opacity="0.85"/>
  <path d="M478.9,91.4 Q452.7,95.3 427.9,102.3 L398.7,99.6 Q368.3,94.5 348.6,112.5 Q321.8,115.1 297.3,122.7 L283.6,153.6 L267.0,178.2 Q248.8,199.3 225.4,209.1 Q201.6,218.4 179.2,230.4" fill="none" stroke="#f5d77a" stroke-width="2.59" stroke-linecap="round" stroke-linejoin="round" opacity="0.85"/>
  <path d="M321.8,115.1 L325.8,125.0 Q331.8,134.0 335.7,143.9 Q340.4,153.5 346.6,162.3 Q348.0,173.5 354.8,182.0 Q359.1,191.8 363.6,201.4 L367.5,211.4" fill="none" stroke="#f5d77a" stroke-width="1.18" stroke-linecap="round" stroke-linejoin="round" opacity="0.85"/>
  <path d="M398.7,99.6 Q401.8,88.5 406.2,77.7 Q409.9,66.8 416.4,56.5 L415.5,44.5 Q418.2,33.4 417.0,21.3 L419.1,10.0" fill="none" stroke="#f5d77a" stroke-width="1.52" stroke-linecap="round" stroke-linejoin="round" opacity="0.85"/>
  <path d="M283.6,153.6 L273.0,149.4 L261.8,148.5 Q250.9,145.7 239.6,145.2 L228.1,145.7 Q216.9,144.8 205.5,145.0 Q194.9,140.7 184.0,137.7 L173.4,133.3" fill="none" stroke="#f5d77a" stroke-width="1.64" stroke-linecap="round" stroke-linejoin="round" opacity="0.85"/>
  <path d="M179.2,230.4 L160.7,245.6 Q147.9,265.2 127.1,278.7 Q108.2,293.6 96.8,314.3 Q85.7,335.2 72.5,354.5 Q63.0,376.6 51.4,397.2 Q37.4,415.8 23.4,434.5 L8.9,452.8" fill="none" stroke="#f5d77a" stroke-width="2.74" stroke-linecap="round" stroke-linejoin="round" opacity="0.85"/>
  <path d="M108.2,293.6 Q114.7,298.1 121.9,301.3 L127.9,306.8 Q136.9,306.4 145.0,307.7 L150.8,313.6 L158.5,315.7 Q166.4,317.5 172.4,322.8 Q178.9,327.3 185.5,331.5 L191.6,336.9" fill="none" stroke="#f5d77a" stroke-width="1.26" stroke-linecap="round" stroke-linejoin="round" opacity="0.85"/>
  <path d="M63.0,376.6 L71.5,379.8 Q79.9,383.5 88.2,387.2 Q96.4,391.1 105.5,393.2 Q114.8,394.6 121.8,401.3 Q130.1,405.1 137.8,410.3" fill="none" stroke="#f5d77a" stroke-width="1.54" stroke-linecap="round" stroke-linejoin="round" opacity="0.85"/>
  <path d="M96.8,314.3 Q88.0,314.7 78.6,319.2 L69.0,325.5 L59.9,327.2 Q51.0,328.0 43.0,321.3 Q34.7,317.4 26.5,312.3 Q18.4,306.8 10.0,303.4" fill="none" stroke="#f5d77a" stroke-width="0.77" stroke-linecap="round" stroke-linejoin="round" opacity="0.85"/>
  <path d="M85.7,335.2 Q77.4,331.1 69.7,325.7 L63.1,317.8 L53.4,316.8 L44.8,313.2 L35.1,312.2 L26.7,308.1 L18.2,304.5 L10.0,300.1" fill="none" stroke="#f5d77a" stroke-width="1.33" stroke-linecap="round" stroke-linejoin="round" opacity="0.85"/>
  <path d="M173.9,15.7 Q178.5,41.5 185.9,66.8 Q193.7,92.0 199.0,117.8 L202.7,143.9 Q203.0,170.6 199.9,198.1 L205.1,223.9 Q217.1,248.2 209.9,276.5 Q203.1,304.8 217.8,328.6 L225.8,353.7 L240.4,377.6 Q254.4,401.5 259.7,427.2 Q263.4,453.3 267.9,479.2 L274.8,504.6" fill="none" stroke="#f5d77a" stroke-width="2.27" stroke-linecap="round" stroke-linejoin="round" opacity="0.85"/>
  <path d="M203.1,304.8 Q196.4,302.7 189.7,300.9 L182.8,300.0 Q176.0,298.8 169.3,296.3 L162.3,296.3 L155.6,294.1 Q148.3,296.0 141.4,294.8 Q134.5,294.1 127.7,292.8" fill="none" stroke="#f5d77a" stroke-width="1.49" stroke-linecap="round" stroke-linejoin="round" opacity="0.85"/>
  <path d="M193.7,92.0 L183.0,99.2 L173.2,107.8 L161.5,113.2 Q147.7,115.0 137.6,123.1 Q127.6,131.6 116.2,137.4" fill="none" stroke="#f5d77a" stroke-width="0.93" stroke-linecap="round" stroke-linejoin="round" opacity="0.85"/>
  <path d="M10.9,240.4 Q36.7,245.7 62.0,252.9 L86.9,261.3 L110.8,273.6 Q135.9,281.6 162.1,285.2 Q187.7,291.4 212.9,298.7 Q238.2,305.9 266.8,300.6 Q293.6,302.2 322.0,297.8 Q345.2,312.6 370.1,321.4 L394.9,330.3 Q417.8,346.2 442.8,354.6 L467.9,362.4 L493.2,369.4" fill="none" stroke="#f5d77a" stroke-width="2.71" stroke-linecap="round" stroke-linejoin="round" opacity="0.85"/>
  <path d="M86.9,261.3 L92.4,250.9 Q98.8,241.0 105.9,231.6 Q108.6,219.4 115.1,209.6 L123.6,201.0 L132.2,192.6 L139.1,183.0 L144.1,172.3 L150.6,162.5 L156.4,152.2" fill="none" stroke="#f5d77a" stroke-width="1.39" stroke-linecap="round" stroke-linejoin="round" opacity="0.85"/>
  <path d="M132.2,192.6 L129.2,191.3 L126.8,188.8 Q124.2,186.9 121.5,185.0 Q119.2,182.5 116.3,180.9 L113.1,179.8 L110.5,177.7" fill="none" stroke="#f5d77a" stroke-width="0.40" stroke-linecap="round" stroke-linejoin="round" opacity="0.85"/>
  <path d="M417.8,346.2 L419.2,335.1 Q419.6,323.8 420.2,312.5 Q423.1,301.6 429.8,291.3 L432.0,280.3 Q429.5,268.6 429.3,257.2 Q430.7,246.1 433.9,235.2 L437.2,224.4" fill="none" stroke="#f5d77a" stroke-width="1.04" stroke-linecap="round" stroke-linejoin="round" opacity="0.85"/>
  <path d="M16.3,43.3 L40.2,54.5 Q64.9,62.8 90.4,67.8 Q115.7,73.7 142.2,74.9 Q169.9,71.7 193.9,82.5 L216.9,97.1 L241.7,104.5 Q268.4,105.2 291.7,118.4 L317.1,124.1 Q344.2,122.9 369.4,129.2 L393.7,139.0 Q420.3,139.7 443.5,153.7 L468.2,161.9 L493.2,168.5" fill="none" stroke="#f5d77a" stroke-width="3.03" stroke-linecap="round" stroke-linejoin="round" opacity="0.85"/>
  <path d="M216.9,97.1 L214.3,101.7 Q212.8,106.6 212.8,112.1 L211.0,117.0 L213.1,123.2 L210.6,127.8 L208.2,132.4 L203.6,136.3 Q203.5,141.8 203.9,147.4 Q200.5,151.7 196.4,155.8" fill="none" stroke="#f5d77a" stroke-width="1.70" stroke-linecap="round" stroke-linejoin="round" opacity="0.85"/>
  <path d="M203.5,141.8 L206.5,140.2 L209.8,139.4 Q213.1,138.4 216.1,136.9 L219.6,136.6 Q222.5,134.7 225.8,133.8 L229.0,132.8 Q232.1,131.5 235.2,130.0" fill="none" stroke="#f5d77a" stroke-width="0.40" stroke-linecap="round" stroke-linejoin="round" opacity="0.85"/>
  <path d="M213.1,123.2 Q210.5,121.9 207.9,119.0 Q205.2,118.7 202.5,119.0 Q199.7,120.6 197.0,121.7 L194.3,122.3 L191.6,122.6" fill="none" stroke="#f5d77a" stroke-width="0.40" stroke-linecap="round" stroke-linejoin="round" opacity="0.85"/>
  <path d="M443.5,153.7 L442.0,164.1 Q440.0,174.4 437.0,184.7 Q430.8,194.8 435.2,205.5 Q438.7,216.2 439.0,226.7 L436.2,236.9 Q435.8,247.4 437.6,257.9 L436.5,268.3" fill="none" stroke="#f5d77a" stroke-width="1.05" stroke-linecap="round" stroke-linejoin="round" opacity="0.85"/>
  <path d="M268.4,105.2 Q264.0,110.8 260.6,117.0 L257.1,123.1 Q252.9,128.8 248.8,134.5 Q244.4,140.1 242.3,147.0 Q241.0,154.3 234.9,158.9 Q230.7,164.6 230.1,172.4" fill="none" stroke="#f5d77a" stroke-width="1.44" stroke-linecap="round" stroke-linejoin="round" opacity="0.85"/>
  <path d="M248.8,134.5 Q251.4,135.6 254.0,137.0 L256.8,137.6 L259.5,138.8 Q262.5,138.7 264.8,140.8 Q268.0,140.4 270.5,142.0 Q272.8,144.3 275.8,144.4 L279.0,143.7 L281.8,144.3" fill="none" stroke="#f5d77a" stroke-width="0.40" stroke-linecap="round" stroke-linejoin="round" opacity="0.85"/>
  <path d="M133.8,495.9 Q138.5,473.9 137.6,451.0 Q140.4,428.7 142.6,406.3 Q138.4,382.8 148.9,361.8 Q154.0,339.9 161.0,318.4 Q163.6,296.0 171.8,274.7 Q173.5,252.2 179.2,230.4" fill="none" stroke="#f5d77a" stroke-width="2.28" stroke-linecap="round" stroke-linejoin="round" opacity="0.85"/>
  <path d="M171.8,274.7 L178.6,276.5 L184.2,280.2 L189.4,284.7 Q197.8,283.8 206.6,282.1 L214.8,281.5 Q216.6,291.8 221.7,296.6 L224.9,304.5 Q230.6,308.0 236.0,312.3" fill="none" stroke="#f5d77a" stroke-width="0.78" stroke-linecap="round" stroke-linejoin="round" opacity="0.85"/>
  <path d="M171.8,274.7 L161.8,271.4 L152.9,265.0 L143.3,260.6 Q132.6,259.1 122.4,256.2 Q111.2,256.1 102.3,249.8 L92.4,246.1" fill="none" stroke="#f5d77a" stroke-width="1.29" stroke-linecap="round" stroke-linejoin="round" opacity="0.85"/>
  <path d="M161.0,318.4 L170.8,318.4 L180.6,320.2 L190.4,320.9 Q200.2,321.6 210.2,319.5 L219.9,321.6 L229.7,323.7 Q239.4,324.9 249.4,323.6" fill="none" stroke="#f5d77a" stroke-width="1.18" stroke-linecap="round" stroke-linejoin="round" opacity="0.85"/>
  <path d="M179.2,230.4 Q200.2,216.0 225.0,206.8 Q243.1,188.4 261.1,169.9 L282.1,155.5 Q301.7,139.3 321.6,123.3 Q342.4,108.6 360.9,90.9 Q382.9,77.8 406.2,66.5 Q425.9,50.4 446.4,35.2" fill="none" stroke="#f5d77a" stroke-width="2.56" stroke-linecap="round" stroke-linejoin="round" opacity="0.85"/>
  <path d="M360.9,90.9 Q366.5,99.1 370.8,107.9 Q374.6,116.9 381.0,124.6 Q381.8,135.2 385.4,144.3 Q390.8,152.6 396.7,160.6 Q402.7,168.6 405.9,177.9 Q408.7,187.4 412.7,196.4" fill="none" stroke="#f5d77a" stroke-width="1.68" stroke-linecap="round" stroke-linejoin="round" opacity="0.85"/>
  <path d="M301.7,139.3 Q305.5,144.0 310.6,147.7 L315.7,151.5 L318.3,157.0 L323.2,160.9 Q329.5,163.9 329.0,171.5 Q335.7,174.2 334.2,182.5 L336.1,188.4 L338.7,193.9" fill="none" stroke="#f5d77a" stroke-width="0.90" stroke-linecap="round" stroke-linejoin="round" opacity="0.85"/>
  <path d="M329.0,171.5 Q326.5,174.4 324.1,177.5 Q321.7,180.5 319.5,183.8 Q314.9,184.5 310.8,185.6 Q309.4,189.7 305.8,191.5 Q303.7,194.9 301.2,197.8 L297.7,199.7" fill="none" stroke="#f5d77a" stroke-width="0.40" stroke-linecap="round" stroke-linejoin="round" opacity="0.85"/>
  <circle cx="209.7" cy="111.4" r="0.71" fill="#f5d77a" opacity="0.55"/>
  <circle cx="56.7" cy="366.4" r="1.14" fill="#e6b94a" opacity="0.88"/>
  <circle cx="250.8" cy="218.2" r="1.24" fill="#f5d77a" opacity="0.82"/>
  <circle cx="395.0" cy="411.4" r="1.53" fill="#f5d77a" opacity="0.56"/>
  <circle cx="333.4" cy="424.7" r="0.91" fill="#e6b94a" opacity="0.69"/>
  <circle cx="209.1" cy="144.9" r="0.51" fill="#f5d77a" opacity="0.65"/>
  <circle cx="464.8" cy="54.0" r="1.12" fill="#f5d77a" opacity="0.74"/>
  <circle cx="485.8" cy="187.3" r="0.76" fill="#f5d77a" opacity="0.80"/>
  <circle cx="227.9" cy="460.8" r="0.71" fill="#f5d77a" opacity="0.51"/>
  <circle cx="26.2" cy="243.3" r="1.48" fill="#e6b94a" opacity="0.87"/>
  <circle cx="319.6" cy="83.9" r="1.24" fill="#e6b94a" opacity="0.63"/>
  <circle cx="267.3" cy="111.8" r="1.44" fill="#e6b94a" opacity="0.76"/>
  <circle cx="228.5" cy="277.9" r="1.49" fill="#f5d77a" opacity="0.64"/>
  <circle cx="350.0" cy="459.5" r="0.66" fill="#f5d77a" opacity="0.74"/>
  <circle cx="211.8" cy="61.5" r="0.67" fill="#f5d77a" opacity="0.90"/>
  <circle cx="212.6" cy="460.4" r="1.56" fill="#c9962b" opacity="0.81"/>
  <circle cx="399.6" cy="422.8" r="0.64" fill="#c9962b" opacity="0.57"/>
  <circle cx="49.9" cy="153.7" r="1.20" fill="#e6b94a" opacity="0.63"/>
  <circle cx="196.7" cy="177.3" r="1.47" fill="#e6b94a" opacity="0.67"/>
  <circle cx="193.8" cy="59.7" r="1.56" fill="#c9962b" opacity="0.79"/>
  <circle cx="207.1" cy="229.0" r="0.87" fill="#f5d77a" opacity="0.76"/>
  <circle cx="164.7" cy="436.4" r="1.36" fill="#f5d77a" opacity="0.81"/>
  <circle cx="358.0" cy="358.0" r="0.96" fill="#e6b94a" opacity="0.80"/>
  <circle cx="53.6" cy="226.0" r="1.66" fill="#c9962b" opacity="0.53"/>
  <circle cx="156.2" cy="345.1" r="0.88" fill="#e6b94a" opacity="0.71"/>
  <circle cx="463.2" cy="138.8" r="1.56" fill="#e6b94a" opacity="0.89"/>
  <circle cx="413.3" cy="91.8" r="0.95" fill="#e6b94a" opacity="0.58"/>
  <circle cx="177.4" cy="110.3" r="0.51" fill="#c9962b" opacity="0.78"/>
  <circle cx="480.0" cy="108.2" r="1.30" fill="#f5d77a" opacity="0.82"/>
  <circle cx="140.8" cy="215.9" r="1.40" fill="#f5d77a" opacity="0.66"/>
  <circle cx="430.4" cy="331.5" r="0.50" fill="#f5d77a" opacity="0.50"/>
  <circle cx="164.7" cy="339.0" r="1.40" fill="#f5d77a" opacity="0.70"/>
  <circle cx="403.4" cy="464.8" r="0.82" fill="#e6b94a" opacity="0.69"/>
  <circle cx="271.0" cy="313.7" r="1.26" fill="#c9962b" opacity="0.58"/>
  <circle cx="24.9" cy="65.7" r="0.87" fill="#e6b94a" opacity="0.88"/>
  <circle cx="215.9" cy="193.0" r="1.17" fill="#c9962b" opacity="0.58"/>
  <circle cx="63.3" cy="431.3" r="0.97" fill="#f5d77a" opacity="0.61"/>
  <circle cx="173.6" cy="438.1" r="1.58" fill="#e6b94a" opacity="0.67"/>
  <circle cx="475.0" cy="101.2" r="0.80" fill="#c9962b" opacity="0.69"/>
  <circle cx="422.0" cy="352.3" r="0.72" fill="#e6b94a" opacity="0.73"/>
  <circle cx="316.7" cy="456.5" r="1.30" fill="#e6b94a" opacity="0.71"/>
  <circle cx="495.6" cy="267.2" r="0.64" fill="#e6b94a" opacity="0.53"/>
  <circle cx="330.8" cy="16.9" r="1.32" fill="#c9962b" opacity="0.75"/>
  <circle cx="296.0" cy="214.5" r="0.70" fill="#e6b94a" opacity="0.66"/>
  <circle cx="38.0" cy="261.5" r="1.17" fill="#c9962b" opacity="0.56"/>
  <circle cx="226.6" cy="350.2" r="1.00" fill="#f5d77a" opacity="0.55"/>
  <circle cx="97.8" cy="147.8" r="0.94" fill="#f5d77a" opacity="0.81"/>
  <circle cx="98.7" cy="185.5" r="1.65" fill="#e6b94a" opacity="0.80"/>
  <circle cx="69.7" cy="75.6" r="0.66" fill="#e6b94a" opacity="0.51"/>
  <circle cx="262.1" cy="197.8" r="0.92" fill="#f5d77a" opacity="0.75"/>
</svg>